<svg width="36" height="38" viewBox="0 0 36 38" fill="none" xmlns="http://www.w3.org/2000/svg">
<path d="M18.0001 0.953125C16.9121 0.953125 15.5357 1.03945 14.4366 1.35938C13.3374 1.67922 12.6231 2.16602 12.4317 2.92242C12.302 3.43539 12.4884 4.10773 12.9809 4.87188C13.4736 5.63609 14.2408 6.44305 15.0435 7.15813C16.3698 8.33945 17.5516 9.11617 18.0001 9.40438C18.4485 9.11617 19.6304 8.33945 20.9566 7.15813C21.7594 6.44305 22.5266 5.63609 23.0191 4.87188C23.5117 4.10773 23.6982 3.43539 23.5684 2.92242C23.3771 2.16602 22.6628 1.67922 21.5636 1.3593C20.4644 1.03945 19.0881 0.953125 18.0001 0.953125ZM14.9532 8.92398V9.9207L18.0001 12.4598L21.047 9.9207V8.92398C19.6296 10.0723 18.3691 10.8484 18.3691 10.8484L18.0001 11.0759L17.6311 10.8484C17.6311 10.8484 16.3706 10.0723 14.9532 8.92398ZM14.9532 11.7512V14.9988L16.9017 13.375L14.9532 11.7512ZM21.047 11.7512L19.0984 13.375L21.047 14.9988V11.7512ZM18.0001 14.2902L14.9532 16.8293V17.0469H16.4589L17.503 16.0029L18.0001 15.5055L19.5414 17.0469H21.047V16.8293L18.0001 14.2902ZM31.7322 16.2264C30.5404 17.2582 29.2688 17.8343 27.9306 18.1286C26.3979 18.4656 24.7884 18.4588 22.9978 18.4531H20.9475L22.0413 19.5469H28.0001V20.9531H22.1482L21.492 22.0469H25.5001C27.9274 22.0469 30.2419 23.0646 31.7224 24.2834L35.7558 20.25L31.7322 16.2264ZM4.2672 16.2272L0.244385 20.25L4.27774 24.2834C5.75829 23.0646 8.07274 22.0469 10.5001 22.0469H14.5083L13.852 20.9531H8.00009V19.5469H13.9589L15.0527 18.4531H13.0001C11.1251 18.4531 9.51766 18.4602 8.00376 18.1238C6.68313 17.8304 5.44626 17.2541 4.2672 16.2272ZM18.0001 17.4943L15.1354 20.359L18.0001 25.1334L20.8648 20.359L18.0001 17.4943ZM13.7032 23.4531V37.5156H17.297V26.6947L15.352 23.4531H13.7032ZM20.6481 23.4531L18.7032 26.6947V37.5156H22.297V23.4531H20.6481Z" fill="white"/>
</svg>
